<svg xmlns="http://www.w3.org/2000/svg" width="459.38" height="150.87" viewBox="0 0 459.38 150.87"><defs><style>.cls-1{isolation:isolate;}.cls-2{fill:#bda891;}.cls-3{fill:#de2027;}.cls-4{fill:#fff;}.cls-5{fill:#433b32;}</style></defs><title>embarc_logo</title><g id="Software_Consulting_GmbH" data-name="Software Consulting GmbH"><path class="cls-2" d="M44.27,98.06H55.56a22.38,22.38,0,0,1-9.48,13.12q-7,4.72-17.6,4.71-12.86,0-20.08-7.59-7.22-7.38-7.22-21.12,0-13.12,7-20.5,7.22-7.58,20.08-7.59,13.54,0,21,7.38,7.22,7.59,7.22,21.12v2.26a3.25,3.25,0,0,1-.23,1.44h-39q.22,6.36,3.38,9.43,2.93,3.28,8.8,3.28a13.81,13.81,0,0,0,6.54-1.44,3.19,3.19,0,0,0,1.24-.72l1.24-1.13a4.64,4.64,0,0,1,1.69-1.64A7.24,7.24,0,0,1,44.27,98.06Zm-27.08-16h23q-.46-5.54-3.16-8.2Q34.12,71,28.71,71a11.61,11.61,0,0,0-8.12,2.87Q17.42,76.74,17.2,82.07Z" transform="translate(-1.18 -0.52)"/><path class="cls-2" d="M108.19,114.87H94.75V80q0-4.92-2.83-7.18a9.91,9.91,0,0,0-6.33-2.26,9.52,9.52,0,0,0-6.24,2.26Q76.62,75.1,76.63,80v34.86H63v-32q0-13.94,6.92-18.66A29.21,29.21,0,0,1,85.2,59.1a37.63,37.63,0,0,1,8.77,1,18.12,18.12,0,0,1,7.79,4.1,17,17,0,0,1,6.92-3.79A37,37,0,0,1,117,59.1a28.26,28.26,0,0,1,15.78,4.72Q140,68.54,140,82.89v32h-6.82a6.28,6.28,0,0,1-4.77-1.95,7,7,0,0,1-1.85-5V80q0-4.92-2.83-7.18a10,10,0,0,0-12.67,0q-2.83,2.26-2.83,7.18v34.86Z" transform="translate(-1.18 -0.52)"/><path class="cls-2" d="M162.5,51.11v16.4a18.32,18.32,0,0,1,7.22-6.36A23.55,23.55,0,0,1,197,67.1q6.77,8,6.77,20.71T197,108.52a19.08,19.08,0,0,1-9.14,5.64,39.22,39.22,0,0,1-11.4,1.74,40.75,40.75,0,0,1-20.08-5.12q-9.25-5.12-9.25-19.68v-47h7.67a7.79,7.79,0,0,1,5.41,2.05A6.43,6.43,0,0,1,162.5,51.11Zm25.72,36.08q0-7.38-3.38-11.48a11.13,11.13,0,0,0-9.25-4.31q-6.32,0-9.7,4.1-3.39,4.31-3.38,11.69,0,8.61,3.16,12.51a11.37,11.37,0,0,0,9.48,4.31q6.31,0,9.7-4.31T188.22,87.19Z" transform="translate(-1.18 -0.52)"/><path class="cls-3" d="M248.9,112.62a29.92,29.92,0,0,1-10,2.77q-5.3.51-9.36.51a25.31,25.31,0,0,1-14.22-4q-6.09-4-6.09-13.22,0-8.61,5.53-12.3a33.76,33.76,0,0,1,14.1-4.92,14.5,14.5,0,0,0,2.71-.31c1.05-.21,2.26-.37,3.61-.51q9.93-1.23,9.93-5.33,0-3.07-3.5-4a25.41,25.41,0,0,0-6.43-.92,18,18,0,0,0-5.64.82,6,6,0,0,0-3.61,3.08H210.76a15.46,15.46,0,0,1,6.32-10.46q6.09-4.71,17.37-4.72,12.63,0,19,3.9A12.86,12.86,0,0,1,260,74.48V93.14q0,8.2-3.27,12.81A19.4,19.4,0,0,1,248.9,112.62ZM245.29,87.4a45.57,45.57,0,0,1-8.8,2.67l-5.19,1a13.85,13.85,0,0,0-5.87,2.67,7.83,7.83,0,0,0-1.58,4.51,6.33,6.33,0,0,0,2,4.92,9.13,9.13,0,0,0,5.87,1.64q6.32,0,9.93-3.28a11.58,11.58,0,0,0,3.61-9Z" transform="translate(-1.18 -0.52)"/><path class="cls-3" d="M266.25,114.87V88.42A31,31,0,0,1,268.85,75,22.54,22.54,0,0,1,276,66.28a29.13,29.13,0,0,1,10-4.51,48.88,48.88,0,0,1,11.85-1.44h2.26V74.89h-5.19q-6.55,0-9.7,2.87t-3.16,9v28.09Z" transform="translate(-1.18 -0.52)"/><path class="cls-3" d="M347.47,98.06h11.28a22.38,22.38,0,0,1-9.48,13.12q-7,4.72-17.6,4.71-12.86,0-20.08-7.59-7.22-7.38-7.22-21.12,0-13.12,7-20.5,7.22-7.58,20.08-7.59,13.54,0,21,7.38a27.3,27.3,0,0,1,5.87,10.46H342.5a12.09,12.09,0,0,0-2.26-3.08Q337.31,71,331.9,71a11.61,11.61,0,0,0-8.12,2.87q-4.06,4.1-4.06,13.53t4.06,13.33q2.93,3.28,8.8,3.28a13.81,13.81,0,0,0,6.54-1.44,3.18,3.18,0,0,0,1.24-.72l1.24-1.13a9.48,9.48,0,0,1,1.8-1.64A6.7,6.7,0,0,1,347.47,98.06Z" transform="translate(-1.18 -0.52)"/><path class="cls-4" d="M182.25,109.22" transform="translate(-1.18 -0.52)"/><path class="cls-5" d="M4,141.31a11.68,11.68,0,0,0,5.49,1.41c3.13,0,5-1.5,5-3.68,0-2-1.27-3.17-4.47-4.29-3.87-1.25-6.27-3.07-6.27-6.11,0-3.36,3.06-5.86,7.67-5.86a11.65,11.65,0,0,1,5.25,1.06l-.85,2.27a10.18,10.18,0,0,0-4.51-1c-3.24,0-4.47,1.76-4.47,3.23,0,2,1.44,3,4.72,4.16,4,1.41,6.05,3.17,6.05,6.34,0,3.33-2.71,6.21-8.31,6.21a13.24,13.24,0,0,1-6.05-1.37Z" transform="translate(-1.18 -0.52)"/><path class="cls-5" d="M39.9,136.83c0,5.73-4.37,8.22-8.48,8.22-4.61,0-8.17-3.07-8.17-8,0-5.18,3.73-8.22,8.45-8.22C36.59,128.86,39.9,132.09,39.9,136.83ZM26.38,137c0,3.39,2.15,6,5.17,6s5.17-2.53,5.17-6c0-2.62-1.44-6-5.1-6S26.38,134,26.38,137Z" transform="translate(-1.18 -0.52)"/><path class="cls-5" d="M46.76,144.7V131.36H44.37v-2.14h2.39v-.74c0-2.18.53-4.16,2-5.41a6.28,6.28,0,0,1,4.15-1.44,7.8,7.8,0,0,1,2.64.45l-.42,2.18a5,5,0,0,0-2-.35c-2.64,0-3.31,2.11-3.31,4.48v.83h4.12v2.14H49.83V144.7Z" transform="translate(-1.18 -0.52)"/><path class="cls-5" d="M63.49,124.77v4.45h4.44v2.14H63.49v8.35c0,1.92.6,3,2.32,3a7.55,7.55,0,0,0,1.8-.19l.14,2.11A8.26,8.26,0,0,1,65,145a4.52,4.52,0,0,1-3.34-1.18c-.88-.83-1.2-2.21-1.2-4v-8.45H57.82v-2.14h2.64V125.5Z" transform="translate(-1.18 -0.52)"/><path class="cls-5" d="M75.6,129.21l2.25,7.87c.49,1.73,1,3.33,1.27,4.93h.11c.39-1.57,1-3.23,1.51-4.89l2.78-7.9h2.61L88.76,137c.63,1.86,1.13,3.49,1.51,5.05h.11a42.72,42.72,0,0,1,1.3-5l2.43-7.78h3.06L91.69,144.7H88.87l-2.61-7.39a48.24,48.24,0,0,1-1.51-5.09h-.07a42.48,42.48,0,0,1-1.55,5.12l-2.75,7.36H77.57l-5.14-15.49Z" transform="translate(-1.18 -0.52)"/><path class="cls-5" d="M112.21,144.7l-.25-2h-.11a6.58,6.58,0,0,1-5.21,2.3c-3.45,0-5.21-2.21-5.21-4.45,0-3.74,3.66-5.79,10.24-5.76v-.32c0-1.28-.39-3.58-3.87-3.58a9.14,9.14,0,0,0-4.44,1.15l-.7-1.86a11.38,11.38,0,0,1,5.6-1.37c5.21,0,6.48,3.23,6.48,6.34V141a19.86,19.86,0,0,0,.28,3.71Zm-.46-7.9c-3.38-.06-7.22.48-7.22,3.49a2.63,2.63,0,0,0,2.92,2.69,4.23,4.23,0,0,0,4.12-2.59,2.69,2.69,0,0,0,.18-.9Z" transform="translate(-1.18 -0.52)"/><path class="cls-5" d="M122.39,134c0-1.82,0-3.39-.14-4.83H125l.11,3h.14a5.05,5.05,0,0,1,4.72-3.39,3.64,3.64,0,0,1,.88.1v2.66a5.07,5.07,0,0,0-1.06-.1,4.19,4.19,0,0,0-4.15,3.62,7.22,7.22,0,0,0-.14,1.31v8.26h-3.06Z" transform="translate(-1.18 -0.52)"/><path class="cls-5" d="M137.92,137.47c.07,3.81,2.75,5.37,5.84,5.37a12.15,12.15,0,0,0,4.72-.8l.53,2a15,15,0,0,1-5.67,1c-5.25,0-8.38-3.13-8.38-7.81s3-8.35,8-8.35c5.56,0,7,4.45,7,7.29a9.7,9.7,0,0,1-.11,1.31Zm9.08-2c0-1.79-.81-4.58-4.29-4.58-3.13,0-4.51,2.62-4.75,4.58Z" transform="translate(-1.18 -0.52)"/><path class="cls-5" d="M183.26,144a16.54,16.54,0,0,1-6.27,1c-6.69,0-11.72-3.84-11.72-10.91,0-6.75,5-11.33,12.39-11.33a13.79,13.79,0,0,1,5.63,1l-.74,2.27a12.11,12.11,0,0,0-4.79-.9c-5.56,0-9.26,3.23-9.26,8.89,0,5.28,3.34,8.67,9.12,8.67a13.3,13.3,0,0,0,5-.9Z" transform="translate(-1.18 -0.52)"/><path class="cls-5" d="M204.67,136.83c0,5.73-4.37,8.22-8.48,8.22-4.61,0-8.17-3.07-8.17-8,0-5.18,3.73-8.22,8.45-8.22C201.36,128.86,204.67,132.09,204.67,136.83Zm-13.52.16c0,3.39,2.15,6,5.17,6s5.17-2.53,5.17-6c0-2.62-1.44-6-5.1-6S191.15,134,191.15,137Z" transform="translate(-1.18 -0.52)"/><path class="cls-5" d="M211.22,133.41c0-1.6,0-2.91-.14-4.19h2.75l.18,2.56h.07a6.39,6.39,0,0,1,5.63-2.91c2.36,0,6,1.28,6,6.59v9.25h-3.1v-8.93c0-2.49-1-4.57-3.94-4.57a4.35,4.35,0,0,0-4.15,2.88,3.69,3.69,0,0,0-.21,1.31v9.31h-3.1Z" transform="translate(-1.18 -0.52)"/><path class="cls-5" d="M233,141.82a8.71,8.71,0,0,0,4.08,1.12c2.25,0,3.31-1,3.31-2.3s-.88-2.08-3.17-2.85c-3.06-1-4.51-2.53-4.51-4.38,0-2.5,2.22-4.54,5.88-4.54a9.17,9.17,0,0,1,4.19,1l-.77,2a7.12,7.12,0,0,0-3.49-.9c-1.83,0-2.85,1-2.85,2.11s1,1.86,3.24,2.62c3,1,4.47,2.37,4.47,4.67,0,2.72-2.32,4.64-6.37,4.64A10.49,10.49,0,0,1,232.2,144Z" transform="translate(-1.18 -0.52)"/><path class="cls-5" d="M264.24,140.48c0,1.6,0,3,.14,4.22h-2.75l-.18-2.53h-.07a6.53,6.53,0,0,1-5.63,2.88c-2.67,0-5.88-1.34-5.88-6.78v-9.05H253v8.58c0,2.94,1,4.93,3.8,4.93a4.48,4.48,0,0,0,4.08-2.56,3.79,3.79,0,0,0,.28-1.44v-9.5h3.1Z" transform="translate(-1.18 -0.52)"/><path class="cls-5" d="M272,122h3.1V144.7H272Z" transform="translate(-1.18 -0.52)"/><path class="cls-5" d="M286.7,124.77v4.45h4.44v2.14H286.7v8.35c0,1.92.6,3,2.32,3a7.53,7.53,0,0,0,1.79-.19l.14,2.11a8.25,8.25,0,0,1-2.75.38,4.53,4.53,0,0,1-3.34-1.18c-.88-.83-1.2-2.21-1.2-4v-8.45H281v-2.14h2.64V125.5Z" transform="translate(-1.18 -0.52)"/><path class="cls-5" d="M300.72,124.86a1.93,1.93,0,0,1-3.84,0,1.81,1.81,0,0,1,1.94-1.76A1.76,1.76,0,0,1,300.72,124.86Zm-3.45,19.84V129.21h3.1V144.7Z" transform="translate(-1.18 -0.52)"/><path class="cls-5" d="M308.15,133.41c0-1.6,0-2.91-.14-4.19h2.75l.18,2.56H311a6.38,6.38,0,0,1,5.63-2.91c2.36,0,6,1.28,6,6.59v9.25h-3.1v-8.93c0-2.49-1-4.57-3.94-4.57a4.35,4.35,0,0,0-4.15,2.88,3.71,3.71,0,0,0-.21,1.31v9.31h-3.1Z" transform="translate(-1.18 -0.52)"/><path class="cls-5" d="M345,129.21c-.07,1.12-.14,2.37-.14,4.26v9c0,3.55-.77,5.73-2.43,7.07a9.64,9.64,0,0,1-6.2,1.86,11.87,11.87,0,0,1-5.67-1.28l.77-2.14a10.34,10.34,0,0,0,5,1.22c3.17,0,5.49-1.5,5.49-5.41V142h-.07a6.25,6.25,0,0,1-5.42,2.59,7.2,7.2,0,0,1-7.25-7.55c0-5.25,3.77-8.22,7.67-8.22a5.77,5.77,0,0,1,5.31,2.69h.07l.14-2.34Zm-3.2,6.11a3.66,3.66,0,0,0-.18-1.28,4.41,4.41,0,0,0-4.33-3c-3,0-5.07,2.27-5.07,5.86,0,3,1.69,5.57,5,5.57a4.33,4.33,0,0,0,4.54-4.38Z" transform="translate(-1.18 -0.52)"/><path class="cls-5" d="M380.92,143.74a24.1,24.1,0,0,1-7.29,1.18c-3.59,0-6.55-.83-8.87-2.85a10.56,10.56,0,0,1-3.31-8c0-6.43,4.89-11.13,12.85-11.13a16,16,0,0,1,5.91,1l-.74,2.27a13.33,13.33,0,0,0-5.24-.93c-5.77,0-9.54,3.26-9.54,8.67s3.63,8.7,9.15,8.7a10.87,10.87,0,0,0,4.08-.58v-6.43H373.1v-2.24h7.81Z" transform="translate(-1.18 -0.52)"/><path class="cls-5" d="M388.14,133.41c0-1.6,0-2.91-.14-4.19h2.71l.14,2.5H391a6,6,0,0,1,5.35-2.85,5,5,0,0,1,4.82,3.1h.07a6.59,6.59,0,0,1,1.9-2,6.2,6.2,0,0,1,3.77-1.09c2.25,0,5.6,1.34,5.6,6.72v9.12h-3v-8.77c0-3-1.2-4.77-3.7-4.77a4,4,0,0,0-3.66,2.56,4.27,4.27,0,0,0-.25,1.41v9.57h-3v-9.28c0-2.46-1.2-4.26-3.55-4.26a4.16,4.16,0,0,0-3.84,2.82,3.57,3.57,0,0,0-.25,1.38v9.34h-3Z" transform="translate(-1.18 -0.52)"/><path class="cls-5" d="M420,144.7c.07-1.05.14-2.62.14-4V122h3.06v9.73h.07a6.51,6.51,0,0,1,5.81-2.85c4.22,0,7.22,3.2,7.18,7.9,0,5.54-3.84,8.29-7.64,8.29a6.21,6.21,0,0,1-5.7-2.91h-.11l-.14,2.56Zm3.2-6.21a4.83,4.83,0,0,0,.14,1,4.72,4.72,0,0,0,4.65,3.3c3.24,0,5.18-2.4,5.18-6,0-3.1-1.76-5.76-5.07-5.76a4.87,4.87,0,0,0-4.72,3.46,5.08,5.08,0,0,0-.18,1.15Z" transform="translate(-1.18 -0.52)"/><path class="cls-5" d="M446,123.13v9h11.48v-9h3.1V144.7h-3.1V134.59H446V144.7h-3.06V123.13Z" transform="translate(-1.18 -0.52)"/><polyline class="cls-3" points="415.25 115.94 415.04 0 362.16 114.75"/><polyline class="cls-3" points="420.5 19.08 420.5 115.94 458.61 115.93"/></g></svg>